<?xml version="1.0" encoding="utf-8"?>
<!-- Generator: Adobe Illustrator 19.0.1, SVG Export Plug-In . SVG Version: 6.00 Build 0)  -->
<!DOCTYPE svg PUBLIC "-//W3C//DTD SVG 1.1//EN" "http://www.w3.org/Graphics/SVG/1.1/DTD/svg11.dtd">
<svg version="1.1" id="Capa_1" xmlns="http://www.w3.org/2000/svg" xmlns:xlink="http://www.w3.org/1999/xlink" x="0px" y="0px"
	 viewBox="-1133 1615 115.9 115.9" style="enable-background:new -1133 1615 115.9 115.9;" xml:space="preserve">
<style type="text/css">
	.st0{fill:#FFFFFF;}
</style>
<g>
	<path class="st0" d="M-1017.1,1670.2c0-0.9-0.5-1.7-1.4-2.1c-0.8-0.4-1.8-0.3-2.5,0.2c-6.7,4.9-14,3.1-17.7-1.1
		c-4.3-4.8-9.8-15.1-23-14.4c-7.8,0.4-11.5,3.9-13.4,7.9c-1.9-4.1-5.5-7.5-13.4-7.9c-13.2-0.7-18.7,9.5-23,14.4
		c-3.7,4.2-10.9,6.1-17.7,1.1c-0.7-0.5-1.7-0.6-2.5-0.2c-0.8,0.4-1.3,1.2-1.4,2.1c-0.1,4.7,1.2,11.8,8.8,16.6
		c12.3,7.6,31,9.5,43-1.2c0,0,3.7-3.9,6.1-8.7c2.4,4.8,6.1,8.7,6.1,8.7c12.1,10.6,30.8,8.8,43,1.2
		C-1018.4,1682.1-1017,1675-1017.1,1670.2z"/>
</g>
</svg>
