<?xml version="1.0" encoding="utf-8"?>
<!-- Generator: Adobe Illustrator 19.0.1, SVG Export Plug-In . SVG Version: 6.00 Build 0)  -->
<!DOCTYPE svg PUBLIC "-//W3C//DTD SVG 1.1//EN" "http://www.w3.org/Graphics/SVG/1.1/DTD/svg11.dtd">
<svg version="1.1" id="Capa_1" xmlns="http://www.w3.org/2000/svg" xmlns:xlink="http://www.w3.org/1999/xlink" x="0px" y="0px"
	 viewBox="-2364 3328.6 17.6 17.6" style="enable-background:new -2364 3328.6 17.6 17.6;" xml:space="preserve">
<style type="text/css">
	.st0{fill:#F8F3F0;}
	.st1{fill:#ED6C44;}
</style>
<g>
	<g id="XMLID_1_">
		<g>
			<path class="st0" d="M-2357,3341.3c0,1-0.8,1.8-1.8,1.8s-1.8-0.8-1.8-1.8s0.8-1.8,1.8-1.8S-2357,3340.3-2357,3341.3z"/>
			<path class="st0" d="M-2352.6,3341.2v0.1v0.1l-0.1,0.5c0,0.3-0.1,0.6-0.3,0.8s-0.5,0.3-0.8,0.3c-0.6,0-1.1-0.5-1.1-1.1v-0.6
				c0-2-1.6-3.6-3.6-3.6h-0.9c-0.6,0-1.1-0.5-1.1-1.1c0-0.6,0.5-1.1,1.1-1.1h0.5h0.4c3.2,0,5.8,2.5,5.9,5.6
				C-2352.6,3341.1-2352.6,3341.1-2352.6,3341.2z"/>
			<path class="st0" d="M-2348.8,3340.8c-0.1,0.1-0.1,0.5-0.1,0.5v0.5c0,0.6-0.5,1-1,1s-1-0.5-1-1v-0.8c-0.1-4.1-3.5-7.5-7.6-7.6h-1
				c-0.6,0-1-0.5-1-1c0-0.6,0.5-1,1-1h1c0,0,0,0,0.1,0c5.1,0.1,9.3,4.1,9.6,9.2C-2348.8,3340.7-2348.8,3340.7-2348.8,3340.8z"/>
			<path class="st1" d="M-2358.8,3343.1c1,0,1.8-0.8,1.8-1.8s-0.8-1.8-1.8-1.8s-1.8,0.8-1.8,1.8S-2359.8,3343.1-2358.8,3343.1z
				 M-2352.6,3341.3v-0.1c0-0.1,0-0.1,0-0.1c-0.1-3.1-2.7-5.6-5.9-5.6h-0.4h-0.5c-0.6,0-1.1,0.5-1.1,1.1c0,0.6,0.5,1.1,1.1,1.1h0.9
				c2,0,3.6,1.6,3.6,3.6v0.6c0,0.6,0.5,1.1,1.1,1.1c0.3,0,0.6-0.1,0.8-0.3s0.3-0.5,0.3-0.8L-2352.6,3341.3L-2352.6,3341.3z
				 M-2348.8,3340.8c0-0.1,0-0.1,0-0.2c-0.3-5.1-4.5-9.1-9.6-9.2c-0.1,0-0.1,0-0.1,0h-1c-0.5,0-1,0.4-1,1c0,0.5,0.4,1,1,1h1
				c4.1,0.1,7.5,3.5,7.6,7.6v0.8c0,0.5,0.5,1,1,1s1-0.4,1-1v-0.5C-2348.9,3341.3-2348.9,3340.9-2348.8,3340.8z M-2346.4,3329.7v15.4
				c0,0.6-0.5,1.1-1.1,1.1h-15.4c-0.6,0-1.1-0.5-1.1-1.1v-15.4c0-0.6,0.5-1.1,1.1-1.1h15.4
				C-2346.9,3328.6-2346.4,3329.1-2346.4,3329.7z"/>
		</g>
		<g>
		</g>
	</g>
</g>
</svg>
