<?xml version="1.0" encoding="utf-8"?>
<!-- Generator: Adobe Illustrator 19.0.1, SVG Export Plug-In . SVG Version: 6.00 Build 0)  -->
<!DOCTYPE svg PUBLIC "-//W3C//DTD SVG 1.1//EN" "http://www.w3.org/Graphics/SVG/1.1/DTD/svg11.dtd">
<svg version="1.1" id="Capa_1" xmlns="http://www.w3.org/2000/svg" xmlns:xlink="http://www.w3.org/1999/xlink" x="0px" y="0px"
	 viewBox="-948 1430.7 485.2 485.2" style="enable-background:new -948 1430.7 485.2 485.2;" xml:space="preserve">
<style type="text/css">
	.st0{fill:#4B4642;}
</style>
<g>
	<g>
		<path class="st0" d="M-584.1,1612.6c0-100.5-81.5-182-182-182c-100.5,0-182,81.5-182,182c0,100.5,81.5,182,182,182
			C-665.6,1794.6-584.1,1713.1-584.1,1612.6z M-766,1749.1c-75.3,0-136.5-61.2-136.5-136.5c0-75.3,61.2-136.5,136.5-136.5
			c75.2,0,136.5,61.2,136.5,136.5C-629.6,1687.9-690.8,1749.1-766,1749.1z"/>
		<path class="st0" d="M-476.1,1838.2l-111.3-111.3c-16.6,25.8-38.5,47.7-64.3,64.3l111.3,111.3c17.8,17.8,46.6,17.8,64.3,0
			C-458.3,1884.8-458.3,1856-476.1,1838.2z"/>
	</g>
</g>
</svg>
