<?xml version="1.0" encoding="utf-8"?>
<!-- Generator: Adobe Illustrator 19.0.1, SVG Export Plug-In . SVG Version: 6.00 Build 0)  -->
<!DOCTYPE svg PUBLIC "-//W3C//DTD SVG 1.1//EN" "http://www.w3.org/Graphics/SVG/1.1/DTD/svg11.dtd">
<svg version="1.1" id="Capa_1" xmlns="http://www.w3.org/2000/svg" xmlns:xlink="http://www.w3.org/1999/xlink" x="0px" y="0px"
	 viewBox="-1016 1497.9 350 350" style="enable-background:new -1016 1497.9 350 350;" xml:space="preserve">
<style type="text/css">
	.st0{fill:#FFFFFF;}
</style>
<g>
	<path class="st0" d="M-841,1669.1c38.9,0,70.5-38.3,70.5-85.6c0-47.3-10.4-85.6-70.5-85.6s-70.5,38.3-70.5,85.6
		C-911.5,1630.7-879.9,1669.1-841,1669.1z"/>
	<path class="st0" d="M-974.1,1799.7C-974.1,1796.9-974.1,1798.9-974.1,1799.7L-974.1,1799.7z"/>
	<path class="st0" d="M-707.9,1802C-707.9,1801.2-707.9,1796.5-707.9,1802L-707.9,1802z"/>
	<path class="st0" d="M-708.1,1796.3c-1.3-82.3-12.1-105.8-94.4-120.7c0,0-11.6,14.8-38.6,14.8s-38.6-14.8-38.6-14.8
		c-81.4,14.7-92.8,37.8-94.3,118c-0.1,6.5-0.2,6.9-0.2,6.1c0,1.4,0,4.1,0,8.7c0,0,19.6,39.5,133.1,39.5
		c113.5,0,133.1-39.5,133.1-39.5c0-3,0-5,0-6.4C-707.9,1802.5-708,1801.5-708.1,1796.3z"/>
</g>
</svg>
